HIERARCHY
ROOT hip
{
  OFFSET 0 90.174 2.4664
  CHANNELS 6 Xposition Yposition Zposition Zrotation Xrotation Yrotation
  JOINT abdomen
  {
    OFFSET 0 -1.186 -1.5018
    CHANNELS 6 Xposition Yposition Zposition Zrotation Xrotation Yrotation
    JOINT abdomen2
    {
      OFFSET 0 9.964 0.2134
      CHANNELS 6 Xposition Yposition Zposition Zrotation Xrotation Yrotation
      JOINT chest
      {
        OFFSET 0 13.134 -3.2573
        CHANNELS 6 Xposition Yposition Zposition Zrotation Xrotation Yrotation
        JOINT neck
        {
          OFFSET 0 20.686 -1.6905
          CHANNELS 6 Xposition Yposition Zposition Zrotation Xrotation Yrotation
          JOINT head
          {
            OFFSET 0 7.238 -0.1237
            CHANNELS 6 Xposition Yposition Zposition Zrotation Xrotation Yrotation
            End Site
            {
              OFFSET 0 0 0
            }
          }
        }
        JOINT lCollar
        {
          OFFSET 1.7069 20.075 5.0056
          CHANNELS 6 Xposition Yposition Zposition Zrotation Xrotation Yrotation
          JOINT lShldr
          {
            OFFSET 13.6458 -0.047 -4.849
            CHANNELS 6 Xposition Yposition Zposition Zrotation Xrotation Yrotation
            JOINT lForeArm
            {
              OFFSET 28.3255 -0.9759 2.2888
              CHANNELS 6 Xposition Yposition Zposition Zrotation Xrotation Yrotation
              JOINT lHand
              {
                OFFSET 22.1583 -0.53 10.8316
                CHANNELS 6 Xposition Yposition Zposition Zrotation Xrotation Yrotation
                JOINT lThumb1
                {
                  OFFSET 0.786 0.112 2.5817
                  CHANNELS 6 Xposition Yposition Zposition Zrotation Xrotation Yrotation
                  JOINT lThumb2
                  {
                    OFFSET 0.3601 -0.878 4.2331
                    CHANNELS 6 Xposition Yposition Zposition Zrotation Xrotation Yrotation
                    JOINT lThumb2_End
                    {
                      OFFSET 1.8127 -1.216 2.2227
                      CHANNELS 6 Xposition Yposition Zposition Zrotation Xrotation Yrotation
                      End Site
                      {
                        OFFSET 0.0181 -0.0122 0.0222
                      }
                    }
                  }
                }
                JOINT lCarpal1
                {
                  OFFSET 0.9571 1.114 1.7695
                  CHANNELS 6 Xposition Yposition Zposition Zrotation Xrotation Yrotation
                  JOINT lIndex1
                  {
                    OFFSET 4.1246 0.487 4.1451
                    CHANNELS 6 Xposition Yposition Zposition Zrotation Xrotation Yrotation
                    JOINT lIndex2
                    {
                      OFFSET 3.4052 -1.454 2.7682
                      CHANNELS 6 Xposition Yposition Zposition Zrotation Xrotation Yrotation
                      JOINT lIndex2_End
                      {
                        OFFSET 1.4531 -1.795 1.2713
                        CHANNELS 6 Xposition Yposition Zposition Zrotation Xrotation Yrotation
                        End Site
                        {
                          OFFSET 0.0145 -0.0179 0.0127
                        }
                      }
                    }
                  }
                  JOINT lMid1
                  {
                    OFFSET 5.6954 0.21 2.1184
                    CHANNELS 6 Xposition Yposition Zposition Zrotation Xrotation Yrotation
                    JOINT lMid2
                    {
                      OFFSET 3.9766 -1.54 2.3863
                      CHANNELS 6 Xposition Yposition Zposition Zrotation Xrotation Yrotation
                      JOINT lMid2_End
                      {
                        OFFSET 1.4042 -1.926 1.125
                        CHANNELS 6 Xposition Yposition Zposition Zrotation Xrotation Yrotation
                        End Site
                        {
                          OFFSET 0.014 -0.0193 0.0113
                        }
                      }
                    }
                  }
                }
                JOINT lCarpal2
                {
                  OFFSET 2.0956 0.66 -0.3894
                  CHANNELS 6 Xposition Yposition Zposition Zrotation Xrotation Yrotation
                  JOINT lRing1
                  {
                    OFFSET 5.0395 -0.09 2.4971
                    CHANNELS 6 Xposition Yposition Zposition Zrotation Xrotation Yrotation
                    JOINT lRing2
                    {
                      OFFSET 3.7921 -1.552 1.4806
                      CHANNELS 6 Xposition Yposition Zposition Zrotation Xrotation Yrotation
                      JOINT lRing2_End
                      {
                        OFFSET 1.4655 -1.808 0.9609
                        CHANNELS 6 Xposition Yposition Zposition Zrotation Xrotation Yrotation
                        End Site
                        {
                          OFFSET 0.0147 -0.0181 0.0096
                        }
                      }
                    }
                  }
                  JOINT lPinky1
                  {
                    OFFSET 4.9141 -1.269 0.3591
                    CHANNELS 6 Xposition Yposition Zposition Zrotation Xrotation Yrotation
                    JOINT lPinky2
                    {
                      OFFSET 3.1477 -1.685 0.8462
                      CHANNELS 6 Xposition Yposition Zposition Zrotation Xrotation Yrotation
                      JOINT lPinky2_End
                      {
                        OFFSET 0.8055 -1.585 0.7955
                        CHANNELS 6 Xposition Yposition Zposition Zrotation Xrotation Yrotation
                        End Site
                        {
                          OFFSET 0.0081 -0.0158 0.008
                        }
                      }
                    }
                  }
                }
              }
            }
          }
        }
        JOINT rCollar
        {
          OFFSET -1.7069 20.075 5.0056
          CHANNELS 6 Xposition Yposition Zposition Zrotation Xrotation Yrotation
          JOINT rShldr
          {
            OFFSET -13.6458 -0.047 -4.849
            CHANNELS 6 Xposition Yposition Zposition Zrotation Xrotation Yrotation
            JOINT rForeArm
            {
              OFFSET -28.3255 -0.9759 2.2888
              CHANNELS 6 Xposition Yposition Zposition Zrotation Xrotation Yrotation
              JOINT rHand
              {
                OFFSET -22.1583 -0.53 10.8316
                CHANNELS 6 Xposition Yposition Zposition Zrotation Xrotation Yrotation
                JOINT rThumb1
                {
                  OFFSET -0.786 0.112 2.5817
                  CHANNELS 6 Xposition Yposition Zposition Zrotation Xrotation Yrotation
                  JOINT rThumb2
                  {
                    OFFSET -0.3601 -0.878 4.2331
                    CHANNELS 6 Xposition Yposition Zposition Zrotation Xrotation Yrotation
                    JOINT rThumb2_End
                    {
                      OFFSET -1.8127 -1.216 2.2227
                      CHANNELS 6 Xposition Yposition Zposition Zrotation Xrotation Yrotation
                      End Site
                      {
                        OFFSET -0.0181 -0.0122 0.0222
                      }
                    }
                  }
                }
                JOINT rCarpal1
                {
                  OFFSET -0.9571 1.114 1.7695
                  CHANNELS 6 Xposition Yposition Zposition Zrotation Xrotation Yrotation
                  JOINT rIndex1
                  {
                    OFFSET -4.1246 0.487 4.1451
                    CHANNELS 6 Xposition Yposition Zposition Zrotation Xrotation Yrotation
                    JOINT rIndex2
                    {
                      OFFSET -3.4052 -1.454 2.7682
                      CHANNELS 6 Xposition Yposition Zposition Zrotation Xrotation Yrotation
                      JOINT rIndex2_End
                      {
                        OFFSET -1.4531 -1.795 1.2713
                        CHANNELS 6 Xposition Yposition Zposition Zrotation Xrotation Yrotation
                        End Site
                        {
                          OFFSET -0.0145 -0.018 0.0127
                        }
                      }
                    }
                  }
                  JOINT rMid1
                  {
                    OFFSET -5.6954 0.21 2.1184
                    CHANNELS 6 Xposition Yposition Zposition Zrotation Xrotation Yrotation
                    JOINT rMid2
                    {
                      OFFSET -3.9766 -1.54 2.3863
                      CHANNELS 6 Xposition Yposition Zposition Zrotation Xrotation Yrotation
                      JOINT rMid2_End
                      {
                        OFFSET -1.4042 -1.926 1.125
                        CHANNELS 6 Xposition Yposition Zposition Zrotation Xrotation Yrotation
                        End Site
                        {
                          OFFSET -0.014 -0.0193 0.0113
                        }
                      }
                    }
                  }
                }
                JOINT rCarpal2
                {
                  OFFSET -2.0956 0.66 -0.3894
                  CHANNELS 6 Xposition Yposition Zposition Zrotation Xrotation Yrotation
                  JOINT rRing1
                  {
                    OFFSET -5.0395 -0.09 2.4971
                    CHANNELS 6 Xposition Yposition Zposition Zrotation Xrotation Yrotation
                    JOINT rRing2
                    {
                      OFFSET -3.7921 -1.552 1.4806
                      CHANNELS 6 Xposition Yposition Zposition Zrotation Xrotation Yrotation
                      JOINT rRing2_End
                      {
                        OFFSET -1.4655 -1.808 0.9609
                        CHANNELS 6 Xposition Yposition Zposition Zrotation Xrotation Yrotation
                        End Site
                        {
                          OFFSET -0.0147 -0.0181 0.0096
                        }
                      }
                    }
                  }
                  JOINT rPinky1
                  {
                    OFFSET -4.9141 -1.269 0.3592
                    CHANNELS 6 Xposition Yposition Zposition Zrotation Xrotation Yrotation
                    JOINT rPinky2
                    {
                      OFFSET -3.1477 -1.685 0.8462
                      CHANNELS 6 Xposition Yposition Zposition Zrotation Xrotation Yrotation
                      JOINT rPinky2_End
                      {
                        OFFSET -0.8055 -1.585 0.7955
                        CHANNELS 6 Xposition Yposition Zposition Zrotation Xrotation Yrotation
                        End Site
                        {
                          OFFSET -0.0081 -0.0158 0.008
                        }
                      }
                    }
                  }
                }
              }
            }
          }
        }
      }
    }
  }
  JOINT lThigh
  {
    OFFSET 8.367 -8.2066 0.5982
    CHANNELS 6 Xposition Yposition Zposition Zrotation Xrotation Yrotation
    JOINT lShin
    {
      OFFSET 2.1923 -43.463 -0.4932
      CHANNELS 6 Xposition Yposition Zposition Zrotation Xrotation Yrotation
      JOINT lFoot
      {
        OFFSET 0.7333 -45.8593 -2.6451
        CHANNELS 6 Xposition Yposition Zposition Zrotation Xrotation Yrotation
        End Site
        {
          OFFSET 2.6618 -4.2699 12.3931
        }
      }
    }
  }
  JOINT rThigh
  {
    OFFSET -8.367 -8.2066 0.5982
    CHANNELS 6 Xposition Yposition Zposition Zrotation Xrotation Yrotation
    JOINT rShin
    {
      OFFSET -2.1923 -43.463 -0.4931
      CHANNELS 6 Xposition Yposition Zposition Zrotation Xrotation Yrotation
      JOINT rFoot
      {
        OFFSET -0.7333 -45.8593 -2.6451
        CHANNELS 6 Xposition Yposition Zposition Zrotation Xrotation Yrotation
        End Site
        {
          OFFSET -2.6618 -4.2699 12.3931
        }
      }
    }
  }
}
MOTION
Frames:	4
Frame Time:	0.0333333
0 90.174 2.4664 0 0 -0 0 -1.186 -1.5018 0 0 -0 0 9.964 0.2134 0 0 -0 0 13.134 -3.2573 0 0 -0 0 20.686 -1.6905 0 0 -0 0 7.238 -0.1237 0 0 -0 1.7069 20.075 5.0056 0 0 -0 13.6458 -0.047 -4.849 1.66051 0.0835086 5.75766 28.3255 -0.9759 2.2888 -0.0175111 0.895433 15.7816 22.1583 -0.53 10.8316 7.95139e-016 -1.98785e-016 -0 0.786 0.112 2.5817 5.46658e-016 -3.97569e-016 -0 0.3601 -0.878 4.2331 5.96354e-016 0 -0 1.8127 -1.216 2.2227 3.97569e-016 1.98785e-016 9.54166e-015 0.9571 1.114 1.7695 1.49089e-016 -3.97569e-016 -0 4.1246 0.487 4.1451 6.4605e-016 0 3.18055e-015 3.4052 -1.454 2.7682 5.96354e-016 0 3.18055e-015 1.4531 -1.795 1.2713 8.94531e-016 -1.98785e-016 6.36111e-015 5.6954 0.21 2.1184 6.4605e-016 0 3.18055e-015 3.9766 -1.54 2.3863 5.96354e-016 0 3.18055e-015 1.4042 -1.926 1.125 8.94531e-016 -1.98785e-016 6.36111e-015 2.0956 0.66 -0.3894 1.49089e-016 -3.97569e-016 -0 5.0395 -0.09 2.4971 6.4605e-016 0 3.18055e-015 3.7921 -1.552 1.4806 5.96354e-016 0 3.18055e-015 1.4655 -1.808 0.9609 8.94531e-016 -1.98785e-016 6.36111e-015 4.9141 -1.269 0.3591 6.4605e-016 0 3.18055e-015 3.1477 -1.685 0.8462 5.96354e-016 0 3.18055e-015 0.8055 -1.585 0.7955 8.94531e-016 -1.98785e-016 6.36111e-015 -1.7069 20.075 5.0056 0 0 -0 -13.6458 -0.047 -4.849 -1.4496 0.0636048 -5.0245 -28.3255 -0.9759 2.2888 -1.74811 1.20616 -16.8394 -22.1583 -0.53 10.8316 -1.19271e-015 1.98785e-016 -3.18055e-015 -0.786 0.112 2.5817 -3.97569e-016 1.98785e-016 -3.18055e-015 -0.3601 -0.878 4.2331 -2.98177e-016 1.98785e-016 -3.18055e-015 -1.8127 -1.216 2.2227 -2.98177e-016 3.97569e-016 -0 -0.9571 1.114 1.7695 4.96962e-016 0 -6.36111e-015 -4.1246 0.487 4.1451 -9.93923e-017 3.97569e-016 -0 -3.4052 -1.454 2.7682 -8.94531e-016 5.96354e-016 -0 -1.4531 -1.795 1.2713 -3.97569e-016 3.97569e-016 -0 -5.6954 0.21 2.1184 -9.93923e-017 3.97569e-016 -0 -3.9766 -1.54 2.3863 -8.94531e-016 5.96354e-016 -0 -1.4042 -1.926 1.125 -3.97569e-016 3.97569e-016 -0 -2.0956 0.66 -0.3894 4.96962e-016 0 -6.36111e-015 -5.0395 -0.09 2.4971 -9.93923e-017 3.97569e-016 -0 -3.7921 -1.552 1.4806 -8.94531e-016 5.96354e-016 -0 -1.4655 -1.808 0.9609 -3.97569e-016 3.97569e-016 -0 -4.9141 -1.269 0.3592 -9.93923e-017 3.97569e-016 -0 -3.1477 -1.685 0.8462 -8.94531e-016 5.96354e-016 -0 -0.8055 -1.585 0.7955 -3.97569e-016 3.97569e-016 -0 8.367 -8.2066 0.5982 -4.66115 -1.03232 0.120763 2.1923 -43.463 -0.4932 0.00990601 1.55097 0.177175 0.7333 -45.8593 -2.6451 4.65196 -0.54114 -0.255042 -8.367 -8.2066 0.5982 4.66115 -1.03222 -0.120763 -2.1923 -43.463 -0.4931 -0.00990459 1.5509 -0.177176 -0.7333 -45.8593 -2.6451 -4.65196 -0.541171 0.255041 
1.73572 56.7706 9.10713 0 41.9988 -0 0 -1.186 -1.5018 0.254226 -1.97585 -0.24997 2.22045e-016 9.964 0.2134 0.500263 -3.95277 -0.491597 0 13.134 -3.2573 0.500263 -3.95276 -0.491597 0 20.686 -1.6905 -1.2205e-005 -0.0822342 3.94307e-006 0 7.238 -0.1237 -0.176604 0.38992 0.000599114 1.7069 20.075 5.0056 -33.3726 16.0516 -36.6211 13.6458 -0.047 -4.849 -32.7354 -3.23248 24.1365 28.3255 -0.9759 2.2888 -13.565 8.41625 -27.6526 22.1583 -0.53 10.8316 10.1953 -40.2723 -41.226 0.786 0.112 2.5817 6.95746e-016 5.46658e-016 3.18055e-015 0.3601 -0.878 4.2331 -2.73329e-016 1.49089e-016 3.18055e-015 1.8127 -1.216 2.2227 9.93923e-016 -9.93923e-017 -0 0.9571 1.114 1.7695 6.95746e-016 7.95139e-016 3.18055e-015 4.1246 0.487 4.1451 -7.45443e-017 -7.45443e-017 3.18055e-015 3.4052 -1.454 2.7682 1.18028e-015 1.49089e-016 -0 1.4531 -1.795 1.2713 1.0312e-015 1.98785e-016 -0 5.6954 0.21 2.1184 -7.45443e-017 -7.45443e-017 3.18055e-015 3.9766 -1.54 2.3863 1.18028e-015 1.49089e-016 -0 1.4042 -1.926 1.125 1.0312e-015 1.98785e-016 -0 2.0956 0.66 -0.3894 6.95746e-016 7.95139e-016 3.18055e-015 5.0395 -0.09 2.4971 -7.45443e-017 -7.45443e-017 3.18055e-015 3.7921 -1.552 1.4806 1.18028e-015 1.49089e-016 -0 1.4655 -1.808 0.9609 1.0312e-015 1.98785e-016 -0 4.9141 -1.269 0.3591 -7.45443e-017 -7.45443e-017 3.18055e-015 3.1477 -1.685 0.8462 1.18028e-015 1.49089e-016 -0 0.8055 -1.585 0.7955 1.0312e-015 1.98785e-016 -0 -1.7069 20.075 5.0056 29.514 14.3094 36.3618 -13.6458 -0.047 -4.849 32.6418 -3.37847 -23.3892 -28.3255 -0.9759 2.2888 11.5759 6.9491 25.2674 -22.1583 -0.53 10.8316 -3.96612 -38.0173 43.5368 -0.786 0.112 2.5817 -1.39149e-015 1.98785e-016 -6.36111e-015 -0.3601 -0.878 4.2331 -1.98785e-015 1.98785e-016 -6.36111e-015 -1.8127 -1.216 2.2227 -1.2921e-015 0 -3.18055e-015 -0.9571 1.114 1.7695 -5.96354e-016 0 -6.36111e-015 -4.1246 0.487 4.1451 4.96962e-016 3.97569e-016 -3.18055e-015 -3.4052 -1.454 2.7682 -9.93923e-016 7.95139e-016 -3.18055e-015 -1.4531 -1.795 1.2713 -2.48481e-015 -1.98785e-016 -6.36111e-015 -5.6954 0.21 2.1184 4.96962e-016 3.97569e-016 -3.18055e-015 -3.9766 -1.54 2.3863 -9.93923e-016 7.95139e-016 -3.18055e-015 -1.4042 -1.926 1.125 -2.48481e-015 -1.98785e-016 -6.36111e-015 -2.0956 0.66 -0.3894 -5.96354e-016 0 -6.36111e-015 -5.0395 -0.09 2.4971 4.96962e-016 3.97569e-016 -3.18055e-015 -3.7921 -1.552 1.4806 -9.93923e-016 7.95139e-016 -3.18055e-015 -1.4655 -1.808 0.9609 -2.48481e-015 -1.98785e-016 -6.36111e-015 -4.9141 -1.269 0.3592 4.96962e-016 3.97569e-016 -3.18055e-015 -3.1477 -1.685 0.8462 -9.93923e-016 7.95139e-016 -3.18055e-015 -0.8055 -1.585 0.7955 -2.48481e-015 -1.98785e-016 -6.36111e-015 8.367 -8.2066 0.5982 59.2265 -30.4435 24.7671 2.1923 -43.463 -0.4932 28.6477 87.7597 -22.702 0.7333 -45.8593 -2.6451 -59.8028 41.9589 67.0886 -8.367 -8.2066 0.5982 -59.2463 -30.433 -24.797 -2.1923 -43.463 -0.4931 -29.2641 87.747 23.3261 -0.7333 -45.8593 -2.6451 59.7797 41.9616 -67.0879 
1.73571 56.7478 9.55853 0 41.0023 -0 0 -1.186 -1.5018 0.253301 -1.93172 -0.252159 0 9.964 0.2134 0.498512 -3.86452 -0.496188 -4.44089e-016 13.134 -3.2573 0.498512 -3.86451 -0.496189 0 20.686 -1.6905 -1.98539e-005 -0.0490753 1.25764e-006 0 7.238 -0.1237 -0.346734 0.775347 0.0468477 1.7069 20.075 5.0056 -34.0201 16.7482 -35.9395 13.6458 -0.047 -4.849 -32.4856 -3.17384 24.0815 28.3255 -0.9759 2.2888 -13.3519 8.23149 -27.045 22.1583 -0.53 10.8316 9.6872 -40.1587 -41.889 0.786 0.112 2.5817 2.48481e-016 9.93923e-017 -3.18055e-015 0.3601 -0.878 4.2331 1.06847e-015 -6.95746e-016 -0 1.8127 -1.216 2.2227 1.06847e-015 -6.95746e-016 -0 0.9571 1.114 1.7695 2.48481e-016 -7.45443e-017 -3.18055e-015 4.1246 0.487 4.1451 1.11816e-015 -1.66482e-015 6.36111e-015 3.4052 -1.454 2.7682 4.96962e-016 9.93923e-017 -0 1.4531 -1.795 1.2713 -4.47266e-016 3.97569e-016 -3.18055e-015 5.6954 0.21 2.1184 1.11816e-015 -1.66482e-015 6.36111e-015 3.9766 -1.54 2.3863 4.96962e-016 9.93923e-017 -0 1.4042 -1.926 1.125 -4.47266e-016 3.97569e-016 -3.18055e-015 2.0956 0.66 -0.3894 2.48481e-016 -7.45443e-017 -3.18055e-015 5.0395 -0.09 2.4971 1.11816e-015 -1.66482e-015 6.36111e-015 3.7921 -1.552 1.4806 4.96962e-016 9.93923e-017 -0 1.4655 -1.808 0.9609 -4.47266e-016 3.97569e-016 -3.18055e-015 4.9141 -1.269 0.3591 1.11816e-015 -1.66482e-015 6.36111e-015 3.1477 -1.685 0.8462 4.96962e-016 9.93923e-017 -0 0.8055 -1.585 0.7955 -4.47266e-016 3.97569e-016 -3.18055e-015 -1.7069 20.075 5.0056 30.1381 15.0328 35.6937 -13.6458 -0.047 -4.849 32.3432 -3.30326 -23.3241 -28.3255 -0.9759 2.2888 11.3538 6.78952 24.6606 -22.1583 -0.53 10.8316 -3.4936 -37.8568 44.1662 -0.786 0.112 2.5817 6.95746e-016 3.97569e-016 -0 -0.3601 -0.878 4.2331 3.97569e-016 0 -3.18055e-015 -1.8127 -1.216 2.2227 1.2921e-015 -1.98785e-016 3.18055e-015 -0.9571 1.114 1.7695 -0 0 3.18055e-015 -4.1246 0.487 4.1451 -1.19271e-015 -3.97569e-016 3.18055e-015 -3.4052 -1.454 2.7682 2.98177e-016 7.95139e-016 -0 -1.4531 -1.795 1.2713 2.5842e-015 1.19271e-015 -3.18055e-015 -5.6954 0.21 2.1184 -1.19271e-015 -3.97569e-016 3.18055e-015 -3.9766 -1.54 2.3863 2.98177e-016 7.95139e-016 -0 -1.4042 -1.926 1.125 2.5842e-015 1.19271e-015 -3.18055e-015 -2.0956 0.66 -0.3894 -0 0 3.18055e-015 -5.0395 -0.09 2.4971 -1.19271e-015 -3.97569e-016 3.18055e-015 -3.7921 -1.552 1.4806 2.98177e-016 7.95139e-016 -0 -1.4655 -1.808 0.9609 2.5842e-015 1.19271e-015 -3.18055e-015 -4.9141 -1.269 0.3592 -1.19271e-015 -3.97569e-016 3.18055e-015 -3.1477 -1.685 0.8462 2.98177e-016 7.95139e-016 -0 -0.8055 -1.585 0.7955 2.5842e-015 1.19271e-015 -3.18055e-015 8.367 -8.2066 0.5982 59.0504 -28.9552 24.4997 2.1923 -43.463 -0.4932 21.2905 87.1842 -15.4424 0.7333 -45.8593 -2.6451 -58.9209 42.4385 66.5402 -8.367 -8.2066 0.5982 -59.0702 -28.9446 -24.5291 -2.1923 -43.463 -0.4931 -21.8031 87.175 15.9623 -0.7333 -45.8593 -2.6451 58.8969 42.4421 -66.5384 
1.73569 56.7256 10.0073 0 40.0045 -0 0 -1.186 -1.5018 0.252349 -1.88748 -0.254341 -2.22045e-016 9.964 0.2134 0.496712 -3.77604 -0.500765 0 13.134 -3.2573 0.496712 -3.77603 -0.500765 4.44089e-016 20.686 -1.6905 6.44364e-006 -0.0146725 -6.7205e-006 0 7.238 -0.1237 -0.517363 1.16101 0.0942949 1.7069 20.075 5.0056 -34.6795 17.4382 -35.2463 13.6458 -0.047 -4.849 -32.2358 -3.11543 24.0262 28.3255 -0.9759 2.2888 -13.1369 8.04887 -26.4366 22.1583 -0.53 10.8316 9.18152 -40.0406 -42.5498 0.786 0.112 2.5817 3.05631e-015 -9.44227e-016 -6.36111e-015 0.3601 -0.878 4.2331 4.94903e-006 2.79715e-006 2.13725e-006 1.8127 -1.216 2.2227 -3.86267e-007 -3.04079e-007 -2.20874e-006 0.9571 1.114 1.7695 1.46604e-015 -3.97569e-016 -6.36111e-015 4.1246 0.487 4.1451 -2.73329e-016 -1.93815e-015 3.18055e-015 3.4052 -1.454 2.7682 4.94903e-006 2.79715e-006 2.13725e-006 1.4531 -1.795 1.2713 -3.86267e-007 -3.04079e-007 -2.20874e-006 5.6954 0.21 2.1184 -2.73329e-016 -1.93815e-015 3.18055e-015 3.9766 -1.54 2.3863 4.94903e-006 2.79715e-006 2.13725e-006 1.4042 -1.926 1.125 -3.86267e-007 -3.04079e-007 -2.20874e-006 2.0956 0.66 -0.3894 1.46604e-015 -3.97569e-016 -6.36111e-015 5.0395 -0.09 2.4971 -2.73329e-016 -1.93815e-015 3.18055e-015 3.7921 -1.552 1.4806 4.94903e-006 2.79715e-006 2.13725e-006 1.4655 -1.808 0.9609 -3.86267e-007 -3.04079e-007 -2.20874e-006 4.9141 -1.269 0.3591 -2.73329e-016 -1.93815e-015 3.18055e-015 3.1477 -1.685 0.8462 4.94903e-006 2.79715e-006 2.13725e-006 0.8055 -1.585 0.7955 -3.86267e-007 -3.04079e-007 -2.20874e-006 -1.7069 20.075 5.0056 30.774 15.7501 35.0142 -13.6458 -0.047 -4.849 32.0444 -3.22839 -23.2585 -28.3255 -0.9759 2.2888 11.1299 6.63217 24.053 -22.1583 -0.53 10.8316 -3.02426 -37.6923 44.7928 -0.786 0.112 2.5817 -1.98785e-016 -1.98785e-016 6.36111e-015 -0.3601 -0.878 4.2331 1.2921e-015 -5.96354e-016 -0 -1.8127 -1.216 2.2227 7.95139e-016 -1.98785e-016 3.18055e-015 -0.9571 1.114 1.7695 -1.98785e-016 -3.97569e-016 6.36111e-015 -4.1246 0.487 4.1451 8.94531e-016 -7.95139e-016 6.36111e-015 -3.4052 -1.454 2.7682 4.96962e-016 -1.98785e-016 3.18055e-015 -1.4531 -1.795 1.2713 1.2921e-015 3.97569e-016 3.18055e-015 -5.6954 0.21 2.1184 8.94531e-016 -7.95139e-016 6.36111e-015 -3.9766 -1.54 2.3863 4.96962e-016 -1.98785e-016 3.18055e-015 -1.4042 -1.926 1.125 1.2921e-015 3.97569e-016 3.18055e-015 -2.0956 0.66 -0.3894 -1.98785e-016 -3.97569e-016 6.36111e-015 -5.0395 -0.09 2.4971 8.94531e-016 -7.95139e-016 6.36111e-015 -3.7921 -1.552 1.4806 4.96962e-016 -1.98785e-016 3.18055e-015 -1.4655 -1.808 0.9609 1.2921e-015 3.97569e-016 3.18055e-015 -4.9141 -1.269 0.3592 8.94531e-016 -7.95139e-016 6.36111e-015 -3.1477 -1.685 0.8462 4.96962e-016 -1.98785e-016 3.18055e-015 -0.8055 -1.585 0.7955 1.2921e-015 3.97569e-016 3.18055e-015 8.367 -8.2066 0.5982 58.8838 -27.4662 24.2408 2.1923 -43.463 -0.4932 16.4771 86.5769 -10.7257 0.7333 -45.8593 -2.6451 -58.0279 42.914 65.9806 -8.367 -8.2066 0.5982 -58.9035 -27.4555 -24.2697 -2.1923 -43.463 -0.4931 -16.9028 86.5701 11.1584 -0.7333 -45.8593 -2.6451 58.0028 42.9184 -65.9776 
